<svg xmlns="http://www.w3.org/2000/svg" xmlns:xlink="http://www.w3.org/1999/xlink" width="1024pt" height="1024pt" version="1.0">
  <path d="M577 516h2v1h-3zm15-66v-3l1 1v3l-1 2zM234 290c0-1 2-2 2-2l-1 2c-1 1-3 2-3 2z"/>
  <path d="M168.75 460.22c76.338-115.42 271.47-195.83 425.71-235.23-103.15 70.474-227.5 138.58-319.6 241.62-16.37 16.957-25.608 32.046-57.528 45.383 17.336 32.522 35.852 65.675 35.795 113.14-.214 178.94-32.208 244.72-53.693 300.42 2.974-85.825-2.32-173.3-7.67-260.79l-60.085-129.12c-21.921-47.108 25.37-57.097 37.074-75.426zm76.7-178.97c-46.652 31.514-9.967 83.037 31.96 54.971 86.907-56.355 161.05-122.92 240.34-185.37-90.53 42.281-180.22 80.37-272.3 130.4zM69.61 323.62c31.462-47.446 73.832-23.104 57.854 16.271l-25.311 62.374c30.232-9.475 59.77-18.718 94.916-29.831l4.52 5.424c-43.983 33.756-93.402 71.101-150.06 86.78-28.901 7.998-34.802-22.169-30.735-37.966 9.808-38.102 28.897-74.778 48.814-103.05z"/>
  <circle id="a" cx="192.4" cy="217.33" r="70"/>
  <use xlink:href="#a" transform="translate(493.46 161.72)"/>
  <path d="M289.27 864.19C348.216 752.32 416.39 643.1 546 551.42c105.6-60.132 112.41 24.248 61.47 57.854-118.3 69.243-223.76 155-318.2 254.92z"/>
  <path d="M536.01 439.55c50.238-37.085 72.508-1.793 53.379 26.9l-32.543 48.814c28.339 3.277 59.824-1.31 90.397-3.616v5.424c-47.79 21.844-100.02 32.592-150.06 48.814-15.858 7.779-38.421-16.94-18.499-42.422 19.512-25.384 41.296-72.081 57.326-83.914zm165.47 180.26c-87.29-33.595-37.053-106.93 12.656-90.086 104.39 26.82 142.74 25.433 185.01 117.51 26.905 58.608 18.565 110.17 19.285 164.52l-14.463 45.198c-17.728-72.673-14.72-169.33-90.397-213.34zm105.19-197.94c-70.33 1.41-60.95 52.009-17.898 64.559 117.88 16.027 168.41 55.554 209.66 116.97 14.376 20.6 15.133 7.15 15.341-7.67-35.276-84.96-88.129-155.86-207.1-173.86z"/>
</svg>
